# xmcd
# 
# Track frame offsets:
#     150
#     26575
#     53030
#     78335
#     106795
#     133180
#     159572
#     182867
#     205282
#     234197
#     261872
#     290310
# 
# Disc length: 4238
# 
# Revision: 1
# Processed by: cddbd v1.5.2PL0 Copyright (c) Steve Scherf et al.
# Submitted via: fre:ac v1.1beta1pre4
# 
DISCID=9e108c0c
DTITLE=Various Artist - 4 On 1
DYEAR=1995
DGENRE=Happy Hardcore
TTITLE0=Pooch and Wivvy - Riding Rhythm (VIP Mix)
TTITLE1=Dougal and Eruption - Party Time (VIP Mix)
TTITLE2=Eruption - Easy Bass (VIP Mix)
TTITLE3=Ravers Choice - Loving You Is Easy
TTITLE4=Ravers Choice - Keep Rushin'
TTITLE5=Ravers Choice - I Want Your Baby
TTITLE6=Stu J and DJ UFO - We Are The Bass (VIP Mix)
TTITLE7=DJ Rush Gee - The First Rush
TTITLE8=DJ Waxxy - Make Me Shout
TTITLE9=Vibes and Wishdokta - Passion
TTITLE10=Sub-State - Take Me Up (Remix)
TTITLE11=Vibes and Wishdokta - Motorway Madness
EXTD=
EXTT0=
EXTT1=
EXTT2=
EXTT3=
EXTT4=
EXTT5=
EXTT6=
EXTT7=
EXTT8=
EXTT9=
EXTT10=
EXTT11=
PLAYORDER=
